<?xml version="1.0" encoding="UTF-8"?>
<svg width="20px" height="20px" viewBox="0 0 20 20" version="1.1" xmlns="http://www.w3.org/2000/svg" xmlns:xlink="http://www.w3.org/1999/xlink">
    <!-- Generator: Sketch 57.1 (83088) - https://sketch.com -->
    <title>icon/icon_signin_ver</title>
    <desc>Created with Sketch.</desc>
    <g id="icon/icon_signin_ver" stroke="none" stroke-width="1" fill="none" fill-rule="evenodd">
        <g id="icon_signin_user" transform="translate(2.000000, 1.000000)">
            <path d="M14.6837113,2.32431942 L7.96638667,1.01841006 L1.22562096,2.30683268 L1.22560249,10.5538952 C1.22807552,10.958982 1.32666336,11.3576045 1.51850151,11.7271888 C1.76506105,12.215686 2.0727912,12.6708163 2.44522166,13.0942617 C2.84880864,13.5686758 3.29694207,14.0033112 3.81183843,14.4157471 C4.29861636,14.8351542 4.8139298,15.220254 5.34648049,15.5634321 C5.83662865,15.8730406 6.34787896,16.1479063 6.89386745,16.3940452 C7.24283847,16.5593525 7.60794678,16.6879345 7.98330095,16.7777778 L8.109329,16.7777778 C8.48733631,16.6842981 8.85672094,16.5482173 9.24032372,16.3579811 C9.74912546,16.1308257 10.2377229,15.8608824 10.7186472,15.5394267 C11.2571899,15.1954976 11.7681959,14.8208292 12.2478092,14.4177254 C12.7213114,14.018466 13.1587542,13.5783061 13.5546376,13.1028654 C13.9025555,12.6844486 14.199435,12.2261083 14.430911,11.7544361 C14.6014315,11.3895147 14.6877881,10.9909455 14.6835478,10.5777778 L14.6837113,2.32431942 Z M8.0473423,16.7927079 C8.05981685,16.7955387 8.07230228,16.7983268 8.08479838,16.8010722 L8.04552296,16.9798392 L8.00543077,16.8023545 C8.01941543,16.7991955 8.03338556,16.7959801 8.0473423,16.7927079 Z M14.683713,2.23478987 L14.6837131,2.23070496 C14.6836883,2.23207131 14.6836884,2.23343311 14.683713,2.23478987 Z" id="形状结合" stroke="#333333" stroke-width="2" fill-rule="nonzero"></path>
            <path d="M7.20710678,10.326694 C6.81658249,10.7172183 6.18341751,10.7172183 5.79289322,10.326694 C5.40236893,9.93616974 5.40236893,9.30300476 5.79289322,8.91248047 L7.91421356,6.79116012 C8.09445554,6.61091814 8.3263843,6.51386477 8.56228896,6.5 L8.68035173,6.5 C8.91625639,6.51386477 9.14818514,6.61091814 9.32842712,6.79116012 L10.7426407,8.20537369 C11.133165,8.59589798 11.133165,9.22906296 10.7426407,9.61958725 C10.3521164,10.0101115 9.71895142,10.0101115 9.32842712,9.61958725 L8.621,8.912 L7.20710678,10.326694 Z" id="形状结合" fill="#4D93FF" transform="translate(8.267767, 8.559794) scale(-1, -1) translate(-8.267767, -8.559794) "></path>
        </g>
    </g>
</svg>