<?xml version="1.0" encoding="UTF-8"?>
<svg width="20px" height="20px" viewBox="0 0 20 20" version="1.1" xmlns="http://www.w3.org/2000/svg" xmlns:xlink="http://www.w3.org/1999/xlink">
    <!-- Generator: Sketch 64 (93537) - https://sketch.com -->
    <title>icon/icon_top_notice</title>
    <desc>Created with Sketch.</desc>
    <g id="icon/icon_top_notice" stroke="none" stroke-width="1" fill="none" fill-rule="evenodd">
        <g id="icon_notice">
            <rect id="矩形" fill="#D8D8D8" opacity="0" x="0" y="0" width="20" height="20"></rect>
            <path d="M10,3 C8.06700338,3 6.31700338,3.78350169 5.05025253,5.05025253 C3.78350169,6.31700338 3,8.06700338 3,10 L3,16 L17,16 L17,10 C17,8.06700338 16.2164983,6.31700338 14.9497475,5.05025253 C13.6829966,3.78350169 11.9329966,3 10,3 Z" id="矩形" stroke="#333333" stroke-width="2"></path>
            <path d="M8,17 C8,18.1045695 8.8954305,19 10,19 C11.1045695,19 12,18.1045695 12,17" id="路径" stroke="#4D93FF" stroke-width="2" stroke-linecap="round"></path>
            <rect id="矩形" fill="#333333" x="0" y="15" width="20" height="2" rx="1"></rect>
            <rect id="矩形" fill="#333333" x="9" y="0" width="2" height="3" rx="1"></rect>
        </g>
    </g>
</svg>