<?xml version="1.0" encoding="UTF-8"?>
<svg width="60px" height="60px" viewBox="0 0 60 60" version="1.1" xmlns="http://www.w3.org/2000/svg" xmlns:xlink="http://www.w3.org/1999/xlink">
    <!-- Generator: Sketch 57.1 (83088) - https://sketch.com -->
    <title>icon_home_zzjg</title>
    <desc>Created with Sketch.</desc>
    <g id="页面-1" stroke="none" stroke-width="1" fill="none" fill-rule="evenodd">
        <g id="p1首页-系统概览" transform="translate(-341.000000, -155.000000)">
            <g id="用户分布" transform="translate(230.000000, 125.000000)">
                <g id="icon_home_zzjg" transform="translate(111.000000, 30.000000)">
                    <rect id="矩形" fill="#FFCF37" x="0" y="0" width="60" height="60" rx="24"></rect>
                    <g id="icon/icon_zzjg" transform="translate(17.500000, 17.500000)">
                        <g id="icon_zzjg" transform="translate(2.083333, 2.083333)">
                            <rect id="矩形" stroke="#FFFFFF" stroke-width="2" x="6.55555556" y="1" width="7.72222222" height="4.94444444" rx="1.66666667"></rect>
                            <rect id="矩形" stroke="#FFFFFF" stroke-width="2" x="1" y="14.8888889" width="3.55555556" height="3.55555556" rx="1.66666667"></rect>
                            <rect id="矩形备份-2" stroke="#FFFFFF" stroke-width="2" x="8.63888889" y="14.8888889" width="3.55555556" height="3.55555556" rx="1.66666667"></rect>
                            <rect id="矩形备份-3" stroke="#FFFFFF" stroke-width="2" x="16.2777778" y="14.8888889" width="3.55555556" height="3.55555556" rx="1.66666667"></rect>
                            <path d="M2.77777778,13.8888889 L2.77777778,12.0833333 C2.77777778,11.1628588 3.52396986,10.4166667 4.44444444,10.4166667 L16.3888889,10.4166667 C17.3093635,10.4166667 18.0555556,11.1628588 18.0555556,12.0833333 L18.0555556,13.8888889 L18.0555556,13.8888889" id="路径" stroke="#FFFFFF" stroke-width="2"></path>
                            <rect id="矩形" fill="#FFFFFF" x="9.58333333" y="6.25" width="1.66666667" height="8.33333333"></rect>
                        </g>
                    </g>
                </g>
            </g>
        </g>
    </g>
</svg>