<?xml version="1.0" encoding="UTF-8"?>
<svg width="16px" height="16px" viewBox="0 0 16 16" version="1.1" xmlns="http://www.w3.org/2000/svg" xmlns:xlink="http://www.w3.org/1999/xlink">
    <!-- Generator: Sketch 57.1 (83088) - https://sketch.com -->
    <title>icon/icon_organization</title>
    <desc>Created with Sketch.</desc>
    <g id="icon/icon_organization" stroke="none" stroke-width="1" fill="none" fill-rule="evenodd">
        <g id="icon_organization">
            <polygon id="路径" points="0 0 16 0 16 16 0 16"></polygon>
            <g id="编组" transform="translate(0.000000, 0.500000)">
                <rect id="形状结合" fill="#FFD536" x="4" y="0" width="8" height="5.71428571" rx="0.5"></rect>
                <rect id="矩形" fill="#F4BF21" x="6.85714286" y="2" width="2.28571429" height="1.71428571"></rect>
                <rect id="矩形" fill="#FFD536" x="0" y="10.2857143" width="4.57142857" height="4.57142857" rx="0.5"></rect>
                <rect id="矩形备份-2" fill="#FFD536" x="5.71428571" y="10.2857143" width="4.57142857" height="4.57142857" rx="0.5"></rect>
                <rect id="矩形备份-3" fill="#FFD536" x="11.4285714" y="10.2857143" width="4.57142857" height="4.57142857" rx="0.5"></rect>
                <path d="M2.28571429,10.2857143 L2.28571429,8.5 C2.28571429,8.22385763 2.50957191,8 2.78571429,8 L13.2142857,8 C13.4904281,8 13.7142857,8.22385763 13.7142857,8.5 L13.7142857,10.2857143 L13.7142857,10.2857143" id="路径" stroke="#FFD536" stroke-width="2"></path>
                <rect id="矩形" fill="#FFD536" x="6.85714286" y="4.57142857" width="2.28571429" height="5.71428571"></rect>
            </g>
        </g>
    </g>
</svg>