<?xml version="1.0" encoding="UTF-8"?>
<svg width="60px" height="60px" viewBox="0 0 60 60" version="1.1" xmlns="http://www.w3.org/2000/svg" xmlns:xlink="http://www.w3.org/1999/xlink">
    <!-- Generator: Sketch 57.1 (83088) - https://sketch.com -->
    <title>icon_home_yyzh</title>
    <desc>Created with Sketch.</desc>
    <g id="页面-1" stroke="none" stroke-width="1" fill="none" fill-rule="evenodd">
        <g id="p1首页-系统概览" transform="translate(-492.000000, -434.000000)">
            <g id="用户分布备份-2" transform="translate(230.000000, 405.000000)">
                <g id="icon_home_yyzh" transform="translate(262.000000, 29.000000)">
                    <rect id="矩形" fill="#4D93FF" x="0" y="0" width="60" height="60" rx="24"></rect>
                    <g id="icon/icon_yyzh" transform="translate(17.500000, 17.500000)">
                        <g id="icon_yyzh" transform="translate(0.555556, 0.555556)">
                            <path d="M2.20334743,10.5885296 L10.5366808,7.17943868 C10.7496664,7.0923082 10.9929585,7.19433395 11.080089,7.40731956 C11.1005743,7.45739464 11.1111111,7.51098002 11.1111111,7.56508324 L11.1111111,17.9147147 C11.1111111,18.0839053 11.0088019,18.2362982 10.8522081,18.3003593 L2.5188748,21.7094502 C2.30588918,21.7965807 2.06259702,21.6945549 1.97546655,21.4815693 C1.95498129,21.4314943 1.94444444,21.3779089 1.94444444,21.3238056 L1.94444444,10.9741742 C1.94444444,10.8049836 2.04675365,10.6525907 2.20334743,10.5885296 Z" id="矩形备份-7" stroke="#FFFFFF" stroke-width="2" transform="translate(6.527778, 14.444444) scale(-1, 1) translate(-6.527778, -14.444444) "></path>
                            <path d="M14.1962734,10.1141508 L21.4657525,7.14027297 C21.6432405,7.06766424 21.845984,7.1526857 21.9185927,7.33017371 C21.9356637,7.37190294 21.9444444,7.41655742 21.9444444,7.46164344 L21.9444444,17.9613364 C21.9444444,18.1023285 21.8591868,18.2293226 21.728692,18.2827068 L14.1935855,21.3652504" id="路径" stroke="#FFFFFF" stroke-width="2" stroke-linecap="round"></path>
                            <polygon id="形状" fill="#FFFFFF" points="7.77777778 11.9444444 7.77777778 13.5069444 3.61111111 15.0694444 3.61111111 13.5069444"></polygon>
                            <path d="M11.9658697,1.18262953 C11.9296075,1.16971804 11.8899941,1.16975622 11.8537568,1.18273759 L3.19476075,4.28467585 C3.1477182,4.30152805 3.11071916,4.33859848 3.09395769,4.38567343 C3.06308212,4.4723881 3.10834866,4.56771382 3.19506333,4.59858938 L11.9230192,7.70625936 C11.9592813,7.71917085 11.9988948,7.71913267 12.0351321,7.7061513 L20.6941281,4.60421304 C20.7411707,4.58736084 20.7781697,4.55029041 20.7949312,4.50321546 C20.8258068,4.41650079 20.7805402,4.32117507 20.6938256,4.2902995 L11.9658697,1.18262953 Z" id="矩形" stroke="#FFFFFF" stroke-width="1.66666667"></path>
                        </g>
                    </g>
                </g>
            </g>
        </g>
    </g>
</svg>