<?xml version="1.0" encoding="UTF-8"?>
<svg width="40px" height="40px" viewBox="0 0 40 40" version="1.1" xmlns="http://www.w3.org/2000/svg" xmlns:xlink="http://www.w3.org/1999/xlink">
    <!-- Generator: Sketch 57.1 (83088) - https://sketch.com -->
    <title>img_head_default</title>
    <desc>Created with Sketch.</desc>
    <defs>
        <circle id="path-1" cx="20" cy="20" r="20"></circle>
    </defs>
    <g id="组件" stroke="none" stroke-width="1" fill="none" fill-rule="evenodd">
        <g id="head/head_top" transform="translate(-1080.000000, -10.000000)">
            <g id="head_top">
                <g id="编组-4" transform="translate(1080.000000, 10.000000)">
                    <g id="img_head_default">
                        <mask id="mask-2" fill="white">
                            <use xlink:href="#path-1"></use>
                        </mask>
                        <use id="蒙版" fill="#DBE9FF" xlink:href="#path-1"></use>
                        <g id="编组" mask="url(#mask-2)">
                            <g transform="translate(11.000000, 9.000000)" id="身份证人像面">
                                <g>
                                    <path d="M0.522321429,21.6897321 C1.8794643,19.1540178 5.16517856,17.4040179 8.98660714,17.4040179 C12.7723214,17.4040179 16.0223214,19.1183036 17.4151786,21.6183036 L0.522321429,21.6897321 L0.522321429,21.6897321 Z" id="路径" fill="#4D93FF" fill-rule="nonzero"></path>
                                    <path d="M11.5580357,17.6183036 C11.5580357,17.6183036 10.7008929,19.4397321 8.98660714,19.4397321 C7.27232143,19.4397321 6.41517857,17.6183036 6.41517857,17.6183036 L6.41517857,15.9397321 L11.5580357,15.9397321 L11.5580357,17.6183036 L11.5580357,17.6183036 Z" id="路径" fill="#E6DCDC" fill-rule="nonzero"></path>
                                    <path d="M15.4508928,8.296875 C15.1294643,8.18973214 14.7723214,8.33258927 14.4508929,8.65401784 C14.0223214,5.0111607 11.7366072,2.22544641 9.02232141,2.22544641 C6.30803567,2.22544641 4.0223214,5.0111607 3.59375001,8.65401784 C3.27232144,8.33258927 2.9151786,8.18973214 2.59374999,8.296875 C2.02232143,8.47544644 1.80803571,9.43973216 2.12946429,10.4040179 C2.45089286,11.3325893 3.12946427,11.9754465 3.70089287,11.8683036 C4.30803574,15.1540179 6.48660716,16.8683036 9.02232141,16.8683036 C11.59375,16.8683036 13.7366071,15.1897321 14.34375,11.8683036 C14.9151786,11.9754464 15.59375,11.3683035 15.9151786,10.4040179 C16.2008929,9.40401789 16.0223214,8.47544644 15.4508928,8.296875 L15.4508928,8.296875 Z" id="路径" fill="#FAF2F2" fill-rule="nonzero"></path>
                                    <path d="M3.48660716,9.90401786 C4.48660714,6.90401786 4.30803574,6.18973213 5.30803573,6.29687499 C6.34375003,6.40401784 8.12946429,7.83258926 9.80803573,6.54687501 C11.1294643,5.54687503 12.0223215,4.58258931 13.1294643,6.15401786 C14.09375,7.51116073 14.34375,8.26116073 14.4866071,9.90401786 C16.09375,8.47544644 16.34375,2.22544641 11.8794643,1.58258927 C8.95089287,-1.2745536 0.0580357282,1.51116069 3.48660716,9.90401786 Z" id="路径" fill="#21272E" fill-rule="nonzero"></path>
                                    <path d="M0.522321429,22.046875 L17.4151786,21.9397321 C17.5580357,21.9397321 17.6651786,21.8683035 17.7366072,21.7611607 C17.8080357,21.6540179 17.8080357,21.5111607 17.7366072,21.4040178 C16.6294643,19.4397321 14.4866072,18.0111607 11.9508929,17.3683036 L11.9508929,16.3683036 C13.2723214,15.546875 14.2366071,14.0825893 14.6651786,12.2254464 C15.3080357,12.1183036 15.9508929,11.4754464 16.2723214,10.5111607 C16.4508929,9.97544644 16.4866071,9.43973216 16.3794643,8.97544641 C16.2723214,8.54687499 16.09375,8.22544641 15.8080357,8.04687501 C16.0223214,6.93973217 15.9866072,5.61830357 15.6651786,4.51116073 C15.09375,2.68973216 13.84375,1.546875 12.09375,1.2611607 C10.4508929,-0.2388393 7.3080357,-0.203125028 5.02232143,1.33258929 C3.95089286,2.08258929 1.77232144,4.04687499 2.55803571,7.93973216 L2.48660713,7.93973216 C2.09374997,8.08258929 1.80803571,8.43973217 1.70089286,8.97544641 C1.59375,9.43973211 1.62946427,9.9754464 1.80803571,10.5111607 C2.12946429,11.4397322 2.77232143,12.1183036 3.41517857,12.2254464 C3.84375,14.1183036 4.80803571,15.546875 6.12946427,16.3683036 L6.12946427,17.3683036 C3.45089284,18.0111607 1.3080357,19.5111607 0.200892857,21.5111607 C0.129464272,21.6183036 0.129464272,21.7611607 0.200892857,21.8683036 C0.272321443,21.9754464 0.415178571,22.046875 0.522321429,22.046875 L0.522321429,22.046875 Z M5.37946427,1.90401784 C7.41517856,0.546874972 10.2723214,0.5111607 11.6294643,1.8325893 C11.7008929,1.86830357 11.7366072,1.90401789 11.84375,1.93973216 C13.7723214,2.22544646 14.59375,3.6183036 14.9508929,4.72544644 C15.2723214,5.79687501 15.2723214,6.97544644 15.09375,7.90401784 C15.0223214,8.22544641 14.9508929,8.54687499 14.84375,8.79687501 C14.84375,8.83258929 14.8080357,8.86830356 14.8080357,8.86830356 L14.8080357,8.83258929 C14.6294643,7.76116071 14.2723214,7.01116071 13.5223214,5.93973214 C13.4508928,5.79687501 13.34375,5.68973216 13.2723214,5.61830357 C12.9508929,5.26116073 12.6294643,5.04687501 12.2366071,5.0111607 L12.0223214,5.0111607 C11.3794643,5.0111607 10.7723214,5.4754464 10.09375,6.01116073 C9.95089286,6.11830359 9.84375,6.22544644 9.70089287,6.3325893 C8.66517857,7.11830357 7.55803573,6.68973214 6.59375001,6.3325893 C6.16517859,6.18973217 5.80803574,6.046875 5.45089286,6.01116073 C5.12946429,5.97544646 4.8794643,6.01116073 4.70089286,6.11830359 C4.27232143,6.36830357 4.09374999,6.93973217 3.84375,7.90401784 C3.77232141,8.18973214 3.66517856,8.4754464 3.5580357,8.83258929 C3.48660711,8.5825893 3.41517857,8.296875 3.34374999,8.04687501 C2.70089284,5.40401786 3.41517857,3.22544644 5.37946427,1.90401784 L5.37946427,1.90401784 Z M4.02232144,11.796875 C4.02232144,11.6897322 3.95089286,11.6183036 3.87946427,11.5825893 C3.80803571,11.546875 3.73660714,11.5111607 3.66517856,11.5111607 L3.59375001,11.5111607 C3.27232144,11.5825893 2.70089289,11.0825893 2.45089286,10.296875 C2.30803571,9.86830359 2.27232141,9.43973216 2.34375,9.11830359 C2.41517859,8.8683036 2.52232144,8.68973216 2.66517857,8.61830357 C2.77232143,9.08258927 2.95089287,9.54687501 3.16517859,10.046875 C3.23660717,10.1897321 3.34375003,10.296875 3.52232143,10.2611607 C3.66517856,10.2611607 3.80803571,10.1540178 3.84375,10.0111607 C4.1294643,9.18973213 4.30803571,8.54687499 4.45089287,8.04687501 C4.8794643,6.6183036 4.91517857,6.6183036 5.30803571,6.65401787 C5.55803571,6.68973214 5.9151786,6.796875 6.27232144,6.93973213 C7.30803571,7.33258929 8.70089289,7.86830357 10.0580357,6.83258927 C10.2008928,6.72544641 10.34375,6.61830356 10.4508929,6.5111607 C11.09375,6.01116069 11.6294643,5.61830357 12.0580357,5.65401784 C12.3080357,5.68973211 12.59375,5.90401783 12.8794643,6.3325893 C13.8080357,7.65401786 14.0580357,8.33258931 14.1651786,9.90401786 C14.1651786,10.046875 14.2723214,10.1540178 14.3794643,10.2254464 C14.4151785,10.2254464 14.4508929,10.2611607 14.5223214,10.2611607 C14.59375,10.2611607 14.7008929,10.2254464 14.7723214,10.1540178 C15.09375,9.83258927 15.3794643,9.36830357 15.5580357,8.83258929 C15.59375,8.90401787 15.6294643,9.01116073 15.6651786,9.11830359 C15.7366071,9.43973216 15.7008928,9.86830359 15.5580357,10.296875 C15.3080357,11.1183036 14.7366071,11.5825893 14.4151786,11.5111607 C14.3080357,11.4754464 14.2366071,11.5111607 14.1294643,11.546875 C14.0580357,11.5825893 13.9866072,11.6897321 13.9866072,11.7611607 C13.6651786,13.5111607 12.8794643,14.8325893 11.7366072,15.6183036 C11.3080357,15.9040179 10.8080357,16.1540178 10.3080357,16.296875 C9.91517854,16.4040179 9.48660711,16.4754464 9.02232141,16.4754464 C8.55803571,16.4754464 8.12946429,16.4040178 7.73660713,16.296875 C7.20089284,16.1540179 6.73660714,15.9397322 6.30803571,15.6183036 C5.12946429,14.8683036 4.34375001,13.546875 4.02232144,11.796875 L4.02232144,11.796875 Z M11.2008929,16.7611607 L11.2008929,17.546875 C11.1651786,17.6183036 11.09375,17.7611607 10.9866072,17.9040179 C10.6294643,18.3683036 9.98660717,19.0825893 9.02232141,19.0825893 C8.05803566,19.0825893 7.37946429,18.3683036 7.05803571,17.8683036 C6.95089286,17.7254464 6.87946427,17.5825893 6.84375,17.5111607 L6.84375,16.7254464 C7.52232141,17.0111607 8.23660714,17.1897321 9.05803573,17.1897321 C9.80803573,17.1897321 10.5223215,17.046875 11.2008929,16.7611607 Z M6.27232144,18.046875 C6.59375001,18.6183036 7.52232146,19.796875 9.02232141,19.796875 C10.5223214,19.796875 11.4151785,18.5825893 11.7723214,18.046875 C13.9151786,18.5825893 15.7366071,19.6897321 16.8080357,21.1897321 L1.20089284,21.296875 C2.23660714,19.7611607 4.05803571,18.5825893 6.27232144,18.046875 L6.27232144,18.046875 Z" id="形状" fill-rule="nonzero"></path>
                                </g>
                            </g>
                        </g>
                    </g>
                </g>
            </g>
        </g>
    </g>
</svg>