<?xml version="1.0" encoding="UTF-8"?>
<svg width="120px" height="120px" viewBox="0 0 120 120" version="1.1" xmlns="http://www.w3.org/2000/svg" xmlns:xlink="http://www.w3.org/1999/xlink">
    <!-- Generator: Sketch 57.1 (83088) - https://sketch.com -->
    <title>img/img_head_default_set</title>
    <desc>Created with Sketch.</desc>
    <g id="img/img_head_default_set" stroke="none" stroke-width="1" fill="none" fill-rule="evenodd">
        <g id="img_head_default_set">
            <circle id="椭圆形" fill="#4D93FF" opacity="0.100000001" cx="60" cy="60" r="60"></circle>
            <g id="身份证人像面" transform="translate(33.000000, 27.000000)" fill-rule="nonzero">
                <path d="M1.56696429,65.0691964 C5.6383929,57.4620535 15.4955357,52.2120536 26.9598214,52.2120536 C38.3169642,52.2120536 48.0669643,57.3549107 52.2455358,64.8549107 L1.56696429,65.0691964 L1.56696429,65.0691964 Z" id="路径" fill="#4D93FF"></path>
                <path d="M34.6741071,52.8549107 C34.6741071,52.8549107 32.1026786,58.3191964 26.9598214,58.3191964 C21.8169643,58.3191964 19.2455357,52.8549107 19.2455357,52.8549107 L19.2455357,47.8191964 L34.6741071,47.8191964 L34.6741071,52.8549107 L34.6741071,52.8549107 Z" id="路径" fill="#E6DCDC"></path>
                <path d="M46.3526785,24.890625 C45.3883928,24.5691964 44.3169643,24.9977678 43.3526786,25.9620535 C42.0669643,15.0334821 35.2098215,6.67633924 27.0669642,6.67633924 C18.924107,6.67633924 12.0669642,15.0334821 10.78125,25.9620535 C9.81696433,24.9977678 8.7455358,24.5691964 7.78124996,24.890625 C6.06696429,25.4263393 5.42410714,28.3191965 6.38839286,31.2120536 C7.35267857,33.9977679 9.38839282,35.9263394 11.1026786,35.6049107 C12.9241072,45.4620536 19.4598215,50.6049107 27.0669642,50.6049107 C34.78125,50.6049107 41.2098214,45.5691964 43.03125,35.6049107 C44.7455357,35.9263392 46.78125,34.1049106 47.7455358,31.2120536 C48.6026787,28.2120537 48.0669643,25.4263393 46.3526785,24.890625 L46.3526785,24.890625 Z" id="路径" fill="#FAF2F2"></path>
                <path d="M10.4598215,29.7120536 C13.4598214,20.7120536 12.9241072,18.5691964 15.9241072,18.890625 C19.0312501,19.2120535 24.3883929,23.4977678 29.4241072,19.640625 C33.3883929,16.6406251 36.0669644,13.7477679 39.3883929,18.4620536 C42.28125,22.5334822 43.03125,24.7834822 43.4598214,29.7120536 C48.28125,25.4263393 49.0312499,6.67633924 35.6383929,4.74776782 C26.8526786,-3.8236608 0.174107185,4.53348206 10.4598215,29.7120536 Z" id="路径" fill="#21272E"></path>
                <path d="M1.56696429,66.140625 L52.2455358,65.8191964 C52.6741071,65.8191964 52.9955357,65.6049106 53.2098215,65.2834822 C53.4241072,64.9620536 53.4241072,64.5334822 53.2098215,64.2120535 C49.8883929,58.3191964 43.4598215,54.0334821 35.8526786,52.1049108 L35.8526786,49.1049107 C39.8169643,46.6406249 42.7098214,42.2477679 43.9955357,36.6763393 C45.9241071,36.3549108 47.8526786,34.4263393 48.8169643,31.5334822 C49.3526786,29.9263393 49.4598214,28.3191965 49.1383929,26.9263392 C48.8169643,25.640625 48.28125,24.6763392 47.4241072,24.140625 C48.0669643,20.8191965 47.9598215,16.8549107 46.9955357,13.5334822 C45.28125,8.06919647 41.53125,4.640625 36.28125,3.7834821 C31.3526786,-0.716517899 21.9241071,-0.609375084 15.0669643,3.99776786 C11.8526786,6.24776786 5.31696433,12.140625 7.67410714,23.8191965 L7.45982139,23.8191965 C6.28124992,24.2477679 5.42410714,25.3191965 5.10267857,26.9263392 C4.78125,28.3191963 4.88839282,29.9263392 5.42410714,31.5334822 C6.38839286,34.3191965 8.31696429,36.3549108 10.2455357,36.6763393 C11.53125,42.3549108 14.4241071,46.640625 18.3883928,49.1049107 L18.3883928,52.1049108 C10.3526785,54.0334822 3.9241071,58.5334822 0.602678571,64.5334821 C0.388392815,64.8549107 0.388392815,65.2834821 0.602678571,65.6049108 C0.816964328,65.9263393 1.24553571,66.140625 1.56696429,66.140625 L1.56696429,66.140625 Z M16.1383928,5.71205353 C22.2455357,1.64062492 30.8169643,1.5334821 34.8883929,5.4977679 C35.1026787,5.60491071 35.2098215,5.71205366 35.53125,5.81919647 C41.3169643,6.67633937 43.7812501,10.8549108 44.8526786,14.1763393 C45.8169643,17.390625 45.8169643,20.9263393 45.28125,23.7120535 C45.0669642,24.6763392 44.8526786,25.640625 44.53125,26.390625 C44.53125,26.4977679 44.4241072,26.6049107 44.4241071,26.6049107 L44.4241071,26.4977679 C43.8883928,23.2834821 42.8169642,21.0334821 40.5669642,17.8191964 C40.3526785,17.390625 40.0312499,17.0691965 39.8169643,16.8549107 C38.8526786,15.7834822 37.8883929,15.140625 36.7098214,15.0334821 L36.0669642,15.0334821 C34.1383928,15.0334821 32.3169642,16.4263392 30.28125,18.0334822 C29.8526786,18.3549108 29.53125,18.6763393 29.1026786,18.9977679 C25.9955357,21.3549107 22.6741072,20.0691964 19.78125,18.9977679 C18.4955358,18.5691965 17.4241072,18.140625 16.3526786,18.0334822 C15.3883929,17.9263394 14.6383929,18.0334822 14.1026786,18.3549108 C12.8169643,19.1049107 12.28125,20.8191965 11.53125,23.7120535 C11.3169642,24.5691964 10.9955357,25.4263392 10.6741071,26.4977679 C10.4598213,25.7477679 10.2455357,24.890625 10.03125,24.140625 C8.10267853,16.2120536 10.2455357,9.67633933 16.1383928,5.71205353 L16.1383928,5.71205353 Z M12.0669643,35.390625 C12.0669643,35.0691965 11.8526786,34.8549107 11.6383928,34.7477679 C11.4241071,34.6406251 11.2098214,34.5334821 10.9955357,34.5334821 L10.78125,34.5334821 C9.81696433,34.7477679 8.10267866,33.2477679 7.35267857,30.890625 C6.92410713,29.6049108 6.81696424,28.3191965 7.03125,27.3549108 C7.24553576,26.6049108 7.56696433,26.0691965 7.99553571,25.8549107 C8.31696429,27.2477678 8.85267861,28.640625 9.49553576,30.140625 C9.70982151,30.5691963 10.0312501,30.8906249 10.5669643,30.7834821 C10.9955357,30.7834821 11.4241071,30.4620535 11.53125,30.0334821 C12.3883929,27.5691964 12.9241071,25.640625 13.3526786,24.140625 C14.6383929,19.8549108 14.7455357,19.8549108 15.9241071,19.9620536 C16.6741071,20.0691964 17.7455358,20.390625 18.8169643,20.8191964 C21.9241071,21.9977679 26.1026787,23.6049107 30.1741071,20.4977678 C30.6026785,20.1763392 31.03125,19.8549107 31.3526786,19.5334821 C33.28125,18.0334821 34.8883929,16.8549107 36.1741072,16.9620535 C36.9241071,17.0691963 37.78125,17.7120535 38.6383928,18.9977679 C41.4241071,22.9620536 42.1741071,24.9977679 42.4955357,29.7120536 C42.4955357,30.140625 42.8169642,30.4620535 43.1383928,30.6763393 C43.2455356,30.6763393 43.3526786,30.7834821 43.5669643,30.7834821 C43.7812501,30.7834821 44.1026787,30.6763393 44.3169643,30.4620535 C45.28125,29.4977678 46.1383929,28.1049107 46.6741071,26.4977679 C46.7812499,26.7120536 46.8883929,27.0334822 46.9955357,27.3549108 C47.2098214,28.3191965 47.1026785,29.6049108 46.6741071,30.890625 C45.9241071,33.3549108 44.2098213,34.7477679 43.2455358,34.5334821 C42.9241071,34.4263393 42.7098214,34.5334821 42.3883929,34.640625 C42.1741071,34.7477678 41.9598215,35.0691963 41.9598215,35.2834821 C40.9955358,40.5334821 38.6383929,44.4977679 35.2098215,46.8549107 C33.9241071,47.7120536 32.4241071,48.4620535 30.9241071,48.890625 C29.7455356,49.2120536 28.4598213,49.4263392 27.0669642,49.4263392 C25.6741071,49.4263392 24.3883929,49.2120535 23.2098214,48.890625 C21.6026785,48.4620537 20.2098214,47.8191965 18.9241071,46.8549107 C15.3883929,44.6049107 13.03125,40.640625 12.0669643,35.390625 L12.0669643,35.390625 Z M33.6026786,50.2834821 L33.6026786,52.640625 C33.4955358,52.8549107 33.28125,53.2834821 32.9598215,53.7120536 C31.8883929,55.1049107 29.9598215,57.2477679 27.0669642,57.2477679 C24.174107,57.2477679 22.1383929,55.1049107 21.1741071,53.6049107 C20.8526786,53.1763393 20.6383928,52.7477678 20.53125,52.5334821 L20.53125,50.1763393 C22.5669642,51.0334822 24.7098214,51.5691964 27.1741072,51.5691964 C29.4241072,51.5691964 31.5669644,51.140625 33.6026786,50.2834821 Z M18.8169643,54.140625 C19.78125,55.8549107 22.5669644,59.390625 27.0669642,59.390625 C31.5669641,59.390625 34.2455356,55.7477679 35.3169643,54.140625 C41.7455357,55.7477679 47.2098214,59.0691964 50.4241071,63.5691964 L3.60267853,63.890625 C6.70982143,59.2834821 12.1741071,55.7477679 18.8169643,54.140625 L18.8169643,54.140625 Z" id="形状"></path>
            </g>
        </g>
    </g>
</svg>