<?xml version="1.0" encoding="UTF-8"?>
<svg width="160px" height="32px" viewBox="0 0 160 32" version="1.1" xmlns="http://www.w3.org/2000/svg" xmlns:xlink="http://www.w3.org/1999/xlink">
    <!-- Generator: Sketch 63.1 (92452) - https://sketch.com -->
    <title>logo_iam_white_a</title>
    <desc>Created with Sketch.</desc>
    <g id="组件" stroke="none" stroke-width="1" fill="none" fill-rule="evenodd">
        <g id="nav/nav_home" transform="translate(-25.000000, -12.000000)" fill="#FFFFFF">
            <g id="nav_home">
                <g id="logo_iam_white_a" transform="translate(25.000000, 12.000000)">
                    <path d="M25.424189,15.4337244 L30.4551405,29.2557443 L30.1850768,30 L20.1231738,30 L25.424189,15.4337244 Z M40.6585785,2.00009032 L45.547724,15.4337244 L50.4377728,2.00009032 L60.7814814,2.00009032 L70.9725452,30 L60.9115454,30 L55.6087238,15.4337244 L50.5786756,29.2557443 L50.8496424,30 L40.2467089,30 L40.5167725,29.2557443 L30.5966755,2.00009032 L40.6585785,2.00009032 Z M20.2529669,2 L10.061903,29.9999097 L-1.27897692e-13,29.9999097 L10.1910639,2 L20.2529669,2 Z" id="形状结合"></path>
                    <g id="编组" transform="translate(72.000000, 1.000000)">
                        <path d="M11.2798632,4.79503361 C11.2585866,4.13120382 11.103693,4.02056552 10.4390121,4.15333148 C9.00071423,4.48524637 7.60667168,4.75077829 6.3683738,4.97205488 C6.50113976,5.28184212 6.52241636,5.76865063 6.52241636,6.54311871 C8.97943763,5.81290595 9.33348019,5.81290595 9.79730997,5.96779957 C10.3505015,6.14482084 10.2841185,6.41035276 9.73092699,6.54311871 C8.15986316,6.89716127 7.34113976,7.00779957 6.52241636,6.89716127 L6.47816104,8.73375701 C9.04496955,8.11418254 9.57603338,8.04779957 9.90879934,8.18056552 C10.3505015,8.33545914 10.2841185,8.60099105 9.46539508,8.82226765 C8.53603338,9.04354425 7.34113976,9.19843786 6.47816104,9.10992723 L6.43475678,11.1235442 L11.4126291,10.5039698 C11.3913525,8.86652297 11.3462461,7.07418254 11.2798632,4.79503361 M15.2858206,8.3575868 C14.4892249,9.2869485 13.4934802,10.2163102 12.3641185,11.1899272 C12.4313525,14.0222677 12.4534802,15.5048208 12.5198632,16.2571613 C12.6517781,17.8733315 12.3641185,19.0460974 11.6560334,19.8648208 C11.1692249,20.4392889 10.83731,20.4392889 10.6168844,20.0852464 C10.1292249,19.40014 9.22199082,18.3814166 8.84667168,18.093757 C8.31475678,17.7397145 8.40326742,17.5626932 8.84667168,17.6733315 C11.0815653,18.1822677 11.2356078,18.093757 11.3019908,16.6563102 C11.3683738,15.0180123 11.4126291,13.5797145 11.4126291,12.0750336 C7.62879934,15.306523 4.06539508,17.7626932 0.415182314,18.3150336 C-0.11673258,18.4043953 -0.0937538564,18.1609911 0.237309973,18.0060974 C4.31050146,16.4784379 7.71730997,14.0886506 11.4126291,10.88014 L6.50113976,11.853757 C4.57518231,12.2077996 2.98199082,12.5618421 2.60667168,12.6724804 C1.83135253,12.9380123 1.47730997,12.8495017 0.879012101,12.2750336 C0.326671676,11.7209911 0.393054654,11.5439698 0.968373803,11.6324804 C1.34454402,11.6988634 2.40667168,11.6103528 5.50454402,11.2341825 C5.54879934,6.32184212 5.32752274,5.1269485 4.97348019,4.83928893 C4.35390572,4.28609744 4.46454402,4.02056552 5.28326742,4.24184212 C7.18624614,2.75928893 8.38113976,0.989076161 8.38113976,0.52439531 C8.38113976,-0.0951791578 8.51390572,-0.161562137 9.57603338,0.303118715 C10.638161,0.767799566 10.5939057,1.05545914 10.0194376,1.36524637 C9.26709721,1.80779957 8.89007593,2.02907616 5.83645891,4.44099105 L5.99135253,4.48524637 C7.07645891,4.37460808 10.1070972,3.57801233 10.5275227,3.33460808 C11.1249695,2.9363102 11.4126291,2.89205488 12.1870972,3.13545914 C13.3828419,3.51162935 13.4041185,3.71077829 12.983693,4.17545914 C12.718161,4.48524637 12.4083738,5.48099105 12.3641185,6.63162935 C12.3419908,7.36184212 12.3419908,8.60099105 12.3419908,9.97290595 C13.4492249,8.84439531 14.8866717,7.02992723 14.998161,6.47673574 C15.1300759,5.87928893 15.4407142,5.83503361 15.8824164,6.2775868 C16.6798632,7.11843786 16.6568844,7.3175868 16.2594376,7.56099105 C15.8824164,7.78226765 15.6398632,7.98141659 15.2858206,8.3575868" id="Fill-4"></path>
                        <path d="M42.1901714,9.14297872 C39.2259161,9.38638298 38.5612352,9.07659574 37.8974054,8.19148936 C36.7246395,6.64255319 36.5476182,6.39914894 34.4676182,3.34553191 C33.7595331,2.32765957 33.5161288,2.06212766 32.7408097,1.61957447 C32.3203842,1.37617021 32.3654905,1 32.918682,1 C33.3825118,1 34.1135756,1.37617021 34.7552778,2.30553191 C37.8761288,6.62042553 39.1144267,7.30638298 42.3671927,8.54553191 C43.0540012,8.83319149 43.0540012,9.07659574 42.1901714,9.14297872 M31.7459161,7.66042553 C30.4625118,9.56340426 29.8871927,10.0502128 28.492299,11.2229787 C28.0276182,11.6212766 27.8505969,11.3557447 28.2940012,10.8025532 C29.2233629,9.69617021 29.732299,9.03234043 30.3740012,7.92595745 C31.3697459,6.28851064 31.5459161,5.71319149 31.4803842,4.98297872 C31.4361288,4.45191489 31.678682,4.36340426 32.3433629,4.76170213 C33.2505969,5.29276596 33.2727246,5.58042553 32.9408097,5.91234043 C32.8080437,6.04510638 32.5646395,6.4212766 31.7459161,7.66042553 M37.6540012,13.2365957 C37.145065,16.8212766 36.9237884,17.4408511 35.5961288,18.747234 C35.1527246,19.1446809 34.7774054,19.1234043 34.5340012,18.613617 C34.2684693,18.0391489 34.0693203,17.772766 33.4488948,16.9991489 C32.985065,16.467234 33.117831,16.3565957 33.6701714,16.533617 C34.8880437,16.9540426 35.3084693,16.8212766 35.5961288,16.1795745 C36.038682,15.0953191 36.4369799,13.0374468 36.5254905,11.3778723 C36.5918735,10.3821277 36.3927246,10.1829787 35.7518735,10.1829787 C35.4854905,10.1829787 35.065065,10.2714894 33.0948522,10.7140426 C34.2020863,11.267234 34.2242139,11.4 33.958682,11.7319149 C33.8037884,11.9310638 33.6488948,12.2629787 33.2505969,13.0374468 C31.7459161,16.1582979 30.2854905,17.5080851 28.4046395,18.4587234 C27.7629373,18.7693617 27.5859161,18.6578723 28.2497459,18.0612766 C29.2897459,17.1310638 29.8871927,16.4893617 30.5731501,15.5378723 C32.1220863,13.413617 32.6080437,11.7761702 32.5425118,10.8246809 C31.3697459,11.1123404 31.0820863,11.0680851 30.6395331,10.8689362 C30.2412352,10.7140426 30.2625118,10.426383 30.9042139,10.3821277 C31.1918735,10.36 32.2327246,10.2051064 33.5603842,9.89531915 C34.3127246,9.71829787 35.5067671,9.38638298 35.8174054,9.27574468 C36.2820863,9.07659574 36.7467671,9.14297872 37.3884693,9.49702128 C38.6497459,10.2051064 38.7603842,10.5148936 38.3399586,10.8910638 C38.052299,11.1787234 37.918682,11.4885106 37.6540012,13.2365957 M28.2046395,4.49617021 C27.6735756,5.42553191 27.2088948,6.2 26.7220863,6.97446809 C27.5859161,7.74893617 27.5859161,7.92595745 27.5195331,8.56765957 C27.4088948,9.78468085 27.2761288,13.7897872 27.2318735,15.3838298 C27.2088948,16.0246809 26.9884693,17.4851064 26.811448,17.9497872 C26.6557033,18.3702128 26.2574054,18.3489362 26.0803842,17.9055319 C25.6157033,16.732766 25.5059161,16.0919149 25.771448,15.4714894 C26.1033629,14.652766 26.3467671,13.1480851 26.4131501,10.7804255 C26.4795331,8.67829787 26.4795331,8.03659574 26.3237884,7.4612766 C24.8854905,9.60765957 23.7135756,10.6697872 22.4071927,11.4442553 C21.9433629,11.7097872 21.8540012,11.466383 22.252299,11.0680851 C23.8020863,9.40851064 25.4616608,7.24 26.3237884,5.44765957 C27.3637884,3.36765957 27.6080437,2.39404255 27.4752778,1.99574468 C27.2761288,1.42042553 27.6301714,1.15489362 28.492299,1.84 C29.4880437,2.61531915 29.4880437,2.88085106 29.1340012,3.1906383 C28.9127246,3.38978723 28.6480437,3.67744681 28.2046395,4.49617021" id="Fill-6"></path>
                        <path d="M58.1445106,5.80896785 C57.7240851,5.56556359 57.2806809,5.18939338 56.949617,4.81322317 C56.7062128,4.52556359 56.7504681,4.37066998 57.3700426,4.39279764 C58.2551489,4.41492529 58.8304681,4.65832955 59.029617,5.25577636 C59.2066383,5.80896785 58.8083404,6.20726572 58.1445106,5.80896785 M60.8440851,3.13152104 C60.268766,3.33066998 59.2508936,3.48556359 58.3215319,3.44130827 C57.8789787,3.41918061 57.3036596,3.33066998 56.8611064,3.19790402 C56.4185532,3.92811678 55.4228085,5.05662742 54.802383,5.36641466 C54.2500426,5.67620189 54.1394043,5.58769125 54.4934468,5.10088274 C55.8211064,3.264287 56.2636596,2.13577636 56.1530213,1.53832955 C56.0645106,1.02939338 56.2636596,0.918755082 56.816,1.05152104 C57.8568511,1.29492529 57.9453617,1.60471253 57.7011064,1.87024444 C57.5240851,2.04726572 57.3036596,2.42343593 57.1045106,2.79960615 C57.8347234,2.77747849 58.6534468,2.64471253 59.5164255,2.40130827 C60.202383,2.20215934 60.6449362,2.20215934 60.9768511,2.33492529 C61.308766,2.46769125 61.3751489,2.95449976 60.8440851,3.13152104 M54.5377021,7.26939338 C54.1606809,7.02598912 53.829617,6.73832955 53.4525957,6.36215934 C53.2100426,6.11875508 53.3206809,5.85322317 53.9402553,5.83109551 C54.9351489,5.80896785 55.3342979,6.0523721 55.3998298,6.67194657 C55.4670638,7.33577636 54.9351489,7.49066998 54.5377021,7.26939338 M55.5334468,10.5664147 C55.2228085,10.544287 53.2985532,10.7434359 52.1691915,10.8983296 C52.1921702,11.4293934 52.1921702,12.1383296 52.1921702,12.8464147 C53.4313191,12.7349253 55.2900426,12.4693934 55.4670638,12.3808827 C55.7989787,12.2259891 55.8874894,12.0710955 56.0645106,11.0532232 C56.1079149,10.7434359 55.909617,10.5885423 55.5334468,10.5664147 M56.2636596,15.4353508 C55.2900426,15.5672657 53.4977021,15.7664147 52.1479149,15.8991806 C52.1257872,16.784287 52.1028085,17.5808827 52.0815319,18.1340742 C53.896,17.9800317 55.4449362,17.8030104 55.909617,17.6259891 C56.3300426,17.4932232 56.5725957,17.3162019 56.8389787,16.3868402 C57.0381277,15.6557764 56.7283404,15.3681168 56.2636596,15.4353508 M51.8381277,6.34003168 C51.5283404,6.14088274 51.2406809,5.83109551 50.8866383,5.36641466 C50.6202553,5.03449976 50.7317447,4.85747849 51.3070638,4.92386147 C52.1921702,5.0123721 52.4355745,5.16726572 52.5904681,5.74258487 C52.7445106,6.31790402 52.2585532,6.62769125 51.8381277,6.34003168 M58.3215319,16.5851381 C57.6798298,17.117053 57.6798298,17.3596061 57.9453617,17.5808827 C58.4542979,18.024287 58.3215319,18.3783296 57.7904681,18.4004572 C57.0602553,18.4447125 55.9981277,18.5110955 54.028766,18.6881168 C53.1649362,18.7757764 52.6125957,18.8208827 52.0364255,18.7987551 C51.9921702,19.7272657 51.7274894,20.2591806 51.4177021,20.2591806 C50.9742979,20.2591806 50.4662128,19.0421593 50.7530213,18.2013083 C51.2406809,16.7408827 51.4177021,11.8498189 50.9530213,10.7213083 C50.6202553,9.92471253 50.8866383,9.70343593 51.9700426,10.3451381 C53.1215319,10.3230104 54.802383,10.0132232 55.6219574,9.68130827 C56.3079149,9.41577636 56.6177021,9.41577636 57.3921702,9.92471253 C58.1002553,10.3893934 58.1002553,10.677053 57.7683404,10.8983296 C57.6134468,10.9868402 57.3921702,11.2302444 57.2151489,11.4736487 C56.8611064,11.9162019 56.7947234,12.2702444 56.883234,12.4030104 C57.1930213,12.8234359 57.1266383,12.9562019 56.4849362,13.0004572 C55.7538723,13.0668402 53.4091915,13.3323721 52.1921702,13.5093934 C52.1921702,14.1068402 52.1921702,14.704287 52.1691915,15.3017338 C54.6483404,15.0362019 55.5998298,14.904287 56.5955745,14.5272657 C57.0381277,14.3732232 57.4364255,14.3502444 58.3879149,14.904287 C59.3394043,15.4787551 59.3615319,15.744287 59.0074894,16.0327976 C58.8968511,16.1204572 58.5649362,16.3868402 58.3215319,16.5851381 M52.6568511,4.0830104 C52.2134468,4.0830104 51.7274894,3.9723721 51.2177021,3.77322317 C50.4883404,5.03449976 49.5581277,5.96386147 48.5411064,6.47279764 C47.9870638,6.76045721 47.9206809,6.64981891 48.2534468,6.22939338 C50.1998298,3.66258487 50.5538723,2.68896785 50.3325957,2.15790402 C50.1342979,1.71535083 50.3555745,1.53832955 51.2619574,1.80386147 C52.0594043,2.0030104 52.2134468,2.35705295 51.9700426,2.66684019 C51.8594043,2.79960615 51.6611064,3.06513806 51.5053617,3.33066998 C52.0815319,3.35279764 52.4798298,3.24215934 53.0551489,3.0430104 C53.5862128,2.88811678 53.9402553,2.86598912 54.2942979,2.99875508 C54.8474894,3.19790402 54.868766,3.50769125 54.3828085,3.72896785 C54.028766,3.90598912 52.9666383,4.0830104 52.6568511,4.0830104 M60.4670638,9.74769125 C59.8704681,10.0132232 59.7589787,9.90258487 60.1581277,9.19449976 C60.8219574,8.04386147 60.7555745,7.86684019 60.1581277,7.86684019 C59.5828085,7.86684019 58.0781277,7.99960615 56.5291915,8.17662742 C55.1121702,8.3536487 50.3989787,8.97322317 49.7802553,9.06173381 C48.9394043,9.19449976 48.5853617,9.23875508 48.0755745,9.12811678 C47.8772766,9.94684019 47.4789787,10.9868402 47.2577021,11.2081168 C46.5708936,11.8940742 46.3938723,11.8276913 46.1062128,11.0974785 C45.9291915,10.677053 45.9734468,10.3008827 46.2389787,9.90258487 C46.6372766,9.30513806 46.9036596,8.57492529 46.9249362,8.06598912 C46.9470638,7.424287 47.323234,7.3136487 48.1870638,8.59705295 C48.8951489,8.53066998 50.3325957,8.3536487 54.9581277,7.75620189 C57.7904681,7.40215934 59.6491915,7.0923721 60.1130213,6.93747849 C61.1538723,6.56130827 61.3538723,6.56130827 62.5700426,7.424287 C63.8321702,8.26513806 63.9198298,8.72981891 63.2338723,8.84045721 C62.149617,9.01747849 61.5300426,9.23875508 60.4670638,9.74769125" id="Fill-8"></path>
                        <path d="M82.9784937,3.09312929 C82.6023235,3.00461865 82.3367916,3.02674631 79.8142384,3.44717185 C80.6984937,3.88972504 80.7436001,4.11100163 80.6108341,4.46504419 C80.5444512,4.59781014 80.4338129,5.52717185 80.4108341,6.16887397 C81.0976426,5.8812144 81.8270043,5.74844844 82.1810469,5.94759738 C82.4687065,6.12461865 82.5138129,6.41227823 82.1376426,6.58929951 C81.8942384,6.67781014 81.075515,6.89908674 80.3895575,7.09823568 L80.3444512,9.57653355 C81.6065788,9.42163993 82.0933873,9.37738461 82.3580682,9.42163993 C82.5350895,9.46589525 82.6687065,9.31100163 83.022749,7.69568248 C83.2440256,6.83270376 83.5095575,4.53142717 83.5095575,3.97823568 C83.5095575,3.33653355 83.4431746,3.18163993 82.9784937,3.09312929 M77.7784937,7.12036334 C77.2695575,6.87695908 77.3801958,6.74419312 78.0440256,6.6999378 C78.2653022,6.67781014 78.8840256,6.56717185 79.4150895,6.41227823 C79.3938129,4.7305761 79.2823235,3.93398036 78.9733873,3.60206546 C77.8006214,3.8012144 77.2244512,3.88972504 76.7384937,3.88972504 C77.0031746,5.39440589 77.3359405,8.38163993 77.4465788,10.0190867 C77.9325363,9.95270376 78.7070043,9.8199378 79.3716852,9.70929951 L79.4150895,7.29738461 C78.7742384,7.38589525 78.3316852,7.34163993 77.7784937,7.12036334 M85.3010469,17.3875974 C84.8814724,17.2556825 81.4295575,17.2105761 79.7478554,17.4105761 C78.2865788,17.5646187 76.4721107,17.875257 75.1665788,18.2292995 C74.569132,18.4063208 73.9716852,18.2727038 73.4414724,17.808874 C72.9316852,17.3654697 72.9759405,17.1441931 74.1274299,17.1892995 C74.5036001,17.2105761 75.8976426,17.0778101 79.3053022,16.636108 L79.3487065,13.9135548 C78.0882809,14.1135548 77.6014724,14.0241931 77.0474299,13.8029165 C76.649132,13.6480229 76.7163661,13.4054697 77.4014724,13.316108 C77.9776426,13.2284484 78.6857278,13.0735548 79.3487065,12.9399378 L79.3716852,10.3510016 C78.8176426,10.4395123 78.1325363,10.5280229 77.4465788,10.6165335 C77.4014724,10.8820655 77.2695575,11.0148314 77.1580682,11.0148314 C76.849132,11.0148314 76.7163661,10.7271718 76.3844512,8.22674631 C76.0304086,5.39440589 75.741898,4.39866121 75.3878554,3.84546972 C74.8789192,3.04887397 75.0789192,2.80546972 76.3393448,3.33653355 C77.8661533,3.22589525 81.6729618,2.56206546 83.0006214,2.09738461 C83.5759405,1.89823568 83.8193448,1.942491 85.0806214,2.82759738 C85.9878554,3.40291653 85.9214724,3.75695908 85.5231746,4.13312929 C85.235515,4.42078887 84.9036001,5.19525695 84.7487065,5.92546972 C84.1512597,8.7799378 83.9521107,9.62078887 83.4874299,10.2403633 C83.0670043,10.7714272 82.8899831,10.7271718 82.7350895,10.4616399 C82.5580682,10.1739804 82.5138129,10.0633421 82.2925363,10.0420655 C81.8270043,9.97483142 80.8763661,10.0633421 80.3444512,10.1739804 L80.3010469,12.7407889 C80.8321107,12.6080229 81.2525363,12.5203633 81.4065788,12.4539804 C81.982749,12.2539804 82.4687065,12.2769591 82.822749,12.475257 C83.2661533,12.7407889 83.2882809,13.0063208 82.7793448,13.2718527 C82.5580682,13.3603633 81.7606214,13.5373846 80.2789192,13.7816399 L80.2338129,16.502491 C81.3631746,16.3254697 82.6687065,16.1484484 84.1733873,15.9280229 C85.4125363,15.7510016 86.0542384,15.9714272 86.6738129,16.436108 C87.4261533,16.9901506 87.3376426,17.9186612 85.3010469,17.3875974 M74.769132,13.0063208 C72.6440256,14.1790867 70.1657278,15.7944059 69.9010469,16.0820655 C69.5470043,16.436108 69.2142384,16.436108 68.5061533,15.8607889 C67.7538129,15.2633421 67.8874299,14.9092995 68.595515,14.8871718 C69.1478554,14.8658953 70.5640256,14.3339804 71.781898,13.7595123 L71.781898,9.95270376 C71.0950895,10.0633421 70.4533873,10.129725 70.0772171,10.0420655 C69.3912597,9.90844844 69.2806214,9.59866121 69.6789192,9.51100163 C70.1223235,9.42163993 71.1614724,9.06759738 71.781898,8.84632078 C71.7589192,6.52291653 71.6712597,5.6599378 71.4048767,5.26163993 C70.7631746,5.37227823 70.2763661,5.32802291 69.7231746,5.10674631 C69.1478554,4.88546972 69.1478554,4.59781014 69.8559405,4.50929951 C70.1436001,4.46504419 71.9589192,3.9118527 72.3572171,3.77908674 C73.4414724,3.35866121 73.662749,3.35866121 74.3478554,3.51355482 C75.0559405,3.6905761 75.1453022,4.08887397 74.5036001,4.37653355 C73.795515,4.64206546 73.1980682,4.8412144 72.2678554,5.062491 C73.0653022,5.37227823 73.0874299,5.61568248 72.9546639,6.36802291 C72.9095575,6.61142717 72.8210469,7.62929951 72.7546639,8.49227823 C73.529132,8.27100163 74.1274299,8.22674631 74.4142384,8.27100163 C74.9231746,8.38163993 75.0338129,8.7799378 74.4584937,9.13398036 C74.1044512,9.33398036 73.4193448,9.57653355 72.6882809,9.75355482 L72.6882809,13.316108 C74.6584937,12.2982357 75.5657278,11.9441931 75.741898,12.1433421 C75.8082809,12.2539804 75.3436001,12.7195123 74.769132,13.0063208" id="Fill-10"></path>
                        <path d="M30.8069128,23.9109298 L31.5678352,26.2706347 C31.6515366,26.5445668 31.7343926,26.8641542 31.7952664,27.1076494 L31.8189396,27.1076494 C31.8798133,26.8641542 31.9626693,26.552176 32.0396071,26.2706347 L32.716828,23.9109298 L33.6451533,23.9109298 L32.6331265,26.8184989 C32.138527,28.1957684 31.7876572,28.9719093 31.2854484,29.4588996 C30.9058327,29.8097694 30.5169168,29.9543447 30.3114677,30 L30.083191,29.254296 C30.9962979,28.9270994 31.3234945,28.0740208 31.3234945,27.9598825 C31.3234945,27.9142271 31.3158853,27.8609626 31.2778392,27.7772611 L29.8388504,23.9109298 L30.8069128,23.9109298 Z M59.7521475,23.82038 C60.3769493,23.82038 60.7269736,24.139122 60.9019858,24.4739278 L60.9163588,24.4739278 L60.9544049,23.9108453 L61.7390004,23.9108453 C61.7182864,24.1712498 61.7046929,24.4717877 61.7016181,24.9200747 L61.7009543,27.5108537 C61.7009543,28.3478684 61.6324713,29.8933863 59.6456183,29.8933863 C59.158628,29.8933863 58.64881,29.7868572 58.3216134,29.5890174 L58.5186077,28.9041872 C58.7781668,29.0563717 59.1806102,29.2009469 59.6532276,29.2009469 C60.3389032,29.2009469 60.8258935,28.8204857 60.8258935,27.8693327 L60.8258935,27.4651984 L60.8098296,27.4651984 C60.5967714,27.8228319 60.1858733,28.082391 59.6456183,28.082391 C58.6555737,28.082391 57.9791983,27.2064847 57.9791983,26.0346642 C57.9791983,24.6108939 58.8381951,23.82038 59.7521475,23.82038 Z M85.8502642,22.8757371 L85.8502642,23.9105916 L86.847918,23.9105916 L86.847918,24.5734396 L85.8502642,24.5734396 L85.8502642,26.6964131 C85.8502642,27.2146858 86.0109034,27.4649447 86.3837553,27.4649447 C86.5587675,27.4649447 86.6652966,27.4429625 86.7718258,27.4116802 L86.8022627,28.0897466 C86.6492327,28.1506204 86.4141922,28.1886665 86.1174325,28.1886665 C85.7674082,28.1886665 85.469803,28.0736827 85.2871816,27.8690791 C85.0741233,27.6408024 84.9752034,27.2899326 84.9752034,26.7429139 L84.9752034,24.5734396 L84.381684,24.5734396 L84.381684,23.9105916 L84.9752034,23.9105916 L84.9752034,23.1496692 L85.8502642,22.8757371 Z M45.5607755,23.8202109 C46.7943153,23.8202109 47.1367303,24.6343979 47.1367303,25.5238317 L47.1367303,27.1073957 C47.1367303,27.4650293 47.1443396,27.8311175 47.1976041,28.1050496 L46.3986356,28.1050496 L46.3369163,27.6180592 L46.3140887,27.6180592 C46.0782027,27.9452559 45.6673046,28.188751 45.1422682,28.188751 C44.3585181,28.188751 43.9095739,27.6096045 43.9095739,26.9628205 C43.9095739,25.9203568 44.8142261,25.4029296 46.2540604,25.4029296 C46.2540604,25.0909514 46.2540604,24.4661495 45.4094365,24.4661495 C45.035739,24.4661495 44.6552778,24.5802879 44.388955,24.7553 L44.2063336,24.1702353 C44.5022479,23.9791592 44.9976929,23.8202109 45.5607755,23.8202109 Z M76.8110978,23.8201264 C77.991373,23.8201264 78.4622995,24.8008708 78.4622995,25.8365708 C78.4622995,25.9819915 78.4546902,26.1028936 78.4403172,26.2094228 L75.7753979,26.2094228 C75.799071,27.1529665 76.3849813,27.5106001 77.0469838,27.5106001 C77.5111464,27.5106001 77.8307339,27.4277441 78.1046659,27.3136057 L78.2492412,27.9367166 C77.9533269,28.0736827 77.4883188,28.1886665 76.917627,28.1886665 C75.6544958,28.1886665 74.9240103,27.3440426 74.9240103,26.0648475 C74.9240103,24.8169348 75.6240589,23.8201264 76.8110978,23.8201264 Z M22.3765689,22.8757371 L22.3765689,23.9105916 L23.3733772,23.9105916 L23.3733772,24.5734396 L22.3765689,24.5734396 L22.3765689,26.6964131 C22.3765689,27.2146858 22.5363626,27.4649447 22.9083691,27.4649447 C23.0833812,27.4649447 23.1907558,27.4429625 23.297285,27.4116802 L23.3277219,28.0897466 C23.1755374,28.1506204 22.9396514,28.1886665 22.6428917,28.1886665 C22.2928674,28.1886665 21.9952622,28.0736827 21.8126408,27.8690791 C21.5995825,27.6408024 21.5006626,27.2899326 21.5006626,26.7429139 L21.5006626,24.5734396 L20.9071431,24.5734396 L20.9071431,23.9105916 L21.5006626,23.9105916 L21.5006626,23.1496692 L22.3765689,22.8757371 Z M28.1131629,22.8757371 L28.1131629,23.9105916 L29.1108167,23.9105916 L29.1108167,24.5734396 L28.1131629,24.5734396 L28.1131629,26.6964131 C28.1131629,27.2146858 28.2738021,27.4649447 28.6458086,27.4649447 C28.8208207,27.4649447 28.9273499,27.4429625 29.0347245,27.4116802 L29.0643159,28.0897466 C28.9121314,28.1506204 28.6762455,28.1886665 28.3794857,28.1886665 C28.0294614,28.1886665 27.7327017,28.0736827 27.5500803,27.8690791 C27.337022,27.6408024 27.2381021,27.2899326 27.2381021,26.7429139 L27.2381021,24.5734396 L26.6437372,24.5734396 L26.6437372,23.9105916 L27.2381021,23.9105916 L27.2381021,23.1496692 L28.1131629,22.8757371 Z M64.9109478,23.8201264 C66.091223,23.8201264 66.5621494,24.8008708 66.5621494,25.8365708 C66.5621494,25.9819915 66.5545402,26.1028936 66.5401672,26.2094228 L63.8752478,26.2094228 C63.898921,27.1529665 64.4848312,27.5106001 65.1468337,27.5106001 C65.6109964,27.5106001 65.9305838,27.4277441 66.2045158,27.3136057 L66.3490911,27.9367166 C66.0531768,28.0736827 65.5881687,28.1886665 65.0174769,28.1886665 C63.7543457,28.1886665 63.0238602,27.3440426 63.0238602,26.0648475 C63.0238602,24.8169348 63.7239088,23.8201264 64.9109478,23.8201264 Z M13.335627,23.8201264 C14.5167477,23.8201264 14.9876741,24.8008708 14.9876741,25.8365708 C14.9876741,25.9819915 14.9800649,26.1028936 14.9656919,26.2094228 L12.3007725,26.2094228 C12.3236002,27.1529665 12.9095105,27.5106001 13.571513,27.5106001 C14.0356756,27.5106001 14.3561085,27.4277441 14.6300406,27.3136057 L14.7746158,27.9367166 C14.4787016,28.0736827 14.0136934,28.1886665 13.4430016,28.1886665 C12.1790249,28.1886665 11.4485394,27.3440426 11.4485394,26.0648475 C11.4485394,24.8169348 12.1485881,23.8201264 13.335627,23.8201264 Z M55.0953869,23.8202109 C56.3289267,23.8202109 56.6721872,24.6343979 56.6721872,25.5238317 L56.6721872,27.1073957 C56.6721872,27.4650293 56.678951,27.8311175 56.7322155,28.1050496 L55.933247,28.1050496 L55.8723732,27.6180592 L55.8495455,27.6180592 C55.6136596,27.9452559 55.201916,28.188751 54.6768796,28.188751 C53.8931295,28.188751 53.4441853,27.6096045 53.4441853,26.9628205 C53.4441853,25.9203568 54.3496829,25.4029296 55.7886718,25.4029296 C55.7886718,25.0909514 55.7886718,24.4661495 54.9440479,24.4661495 C54.5703504,24.4661495 54.1898892,24.5802879 53.9244119,24.7553 L53.740945,24.1702353 C54.0377047,23.9791592 54.5323043,23.8202109 55.0953869,23.8202109 Z M10.1256336,22 L10.1256336,26.9857327 C10.1256336,27.3670394 10.140852,27.8151381 10.1560705,28.1051341 L9.3799296,28.1051341 L9.33427426,27.4498954 L9.31144658,27.4498954 C9.08993362,27.8768574 8.63422564,28.1888356 8.0398607,28.1888356 C7.08870769,28.1888356 6.3658314,27.3442117 6.3658314,26.0489527 C6.3658314,24.6260278 7.18001838,23.8202955 8.11595294,23.8202955 C8.65705331,23.8202955 9.04512374,24.0629452 9.22689965,24.3833781 L9.24296357,24.3833781 L9.24296357,22 L10.1256336,22 Z M72.3153146,23.82038 C72.939271,23.82038 73.6249466,24.2464966 73.6249466,25.5705016 L73.6249466,28.1052187 L72.7574951,28.1052187 L72.7574951,25.7074676 C72.7574951,25.007419 72.5283729,24.5424109 71.9957272,24.5424109 C71.5924383,24.5424109 71.1806948,24.9084991 71.1806948,25.5163915 L71.1806948,28.1052187 L70.3132432,28.1052187 L70.3132432,25.5781108 C70.3132432,24.9913551 70.0925757,24.5424109 69.5827577,24.5424109 C69.187078,24.5424109 68.7381338,24.9000444 68.7381338,25.5620469 L68.7381338,28.1052187 L67.8698368,28.1052187 L67.8698368,25.0911205 C67.8698368,24.6193486 67.8554638,24.2684788 67.8393999,23.9108453 L68.6011678,23.9108453 L68.6459777,24.5271924 L68.6696508,24.5271924 C68.8750999,24.1771681 69.2555611,23.82038 69.8947359,23.82038 C70.428227,23.82038 70.8306704,24.1162943 71.0056826,24.5880662 L71.0217465,24.5880662 C71.3032878,24.1239035 71.7141859,23.82038 72.3153146,23.82038 Z M5.00437212,22.2817949 L5.00437212,28.1053878 L4.12170213,28.1053878 L4.12170213,22.2817949 L5.00437212,22.2817949 Z M25.5741427,23.9034051 L25.5741427,28.1053878 L24.5968486,28.1053878 L24.5968486,23.9034051 L25.5741427,23.9034051 Z M41.3310615,23.82038 C41.9550178,23.82038 42.639848,24.2464966 42.639848,25.5705016 L42.639848,28.1052187 L41.7732419,28.1052187 L41.7732419,25.7074676 C41.7732419,25.007419 41.5441197,24.5424109 41.0114741,24.5424109 C40.6081852,24.5424109 40.1972871,24.9084991 40.1972871,25.5163915 L40.1972871,28.1052187 L39.3289901,28.1052187 L39.3289901,25.5781108 C39.3289901,24.9913551 39.1083226,24.5424109 38.59935,24.5424109 C38.2028249,24.5424109 37.7538807,24.9000444 37.7538807,25.5620469 L37.7538807,28.1052187 L36.8855837,28.1052187 L36.8855837,25.0911205 C36.8855837,24.6193486 36.8712107,24.2684788 36.8551468,23.9108453 L37.6169147,23.9108453 L37.66257,24.5271924 L37.6853977,24.5271924 C37.8908467,24.1771681 38.2713079,23.82038 38.9113282,23.82038 C39.4431284,23.82038 39.8472628,24.1162943 40.0222749,24.5880662 L40.0374934,24.5880662 C40.3190347,24.1239035 40.7290873,23.82038 41.3310615,23.82038 Z M18.3736097,23.82038 C19.028003,23.82038 19.759334,24.2464966 19.759334,25.5400647 L19.759334,28.1052187 L18.8758185,28.1052187 L18.8758185,25.6465938 C18.8758185,25.0530743 18.6779787,24.5500201 18.07685,24.5500201 C17.6431242,24.5500201 17.1781161,24.9084991 17.1781161,25.5781108 L17.1781161,28.1052187 L16.2954461,28.1052187 L16.2954461,25.0911205 C16.2954461,24.6261123 16.2810731,24.2684788 16.2650092,23.9108453 L17.0343863,23.9108453 L17.0791962,24.5348016 L17.1020238,24.5348016 C17.3007091,24.1771681 17.7420441,23.82038 18.3736097,23.82038 Z M50.7805341,23.82038 C51.4357729,23.82038 52.1662584,24.2464966 52.1662584,25.5400647 L52.1662584,28.1052187 L51.2835884,28.1052187 L51.2835884,25.6465938 C51.2835884,25.0530743 51.0857485,24.5500201 50.4846198,24.5500201 C50.0508941,24.5500201 49.5858859,24.9084991 49.5858859,25.5781108 L49.5858859,28.1052187 L48.7032159,28.1052187 L48.7032159,25.0911205 C48.7032159,24.6261123 48.6879975,24.2684788 48.672779,23.9108453 L49.4413107,23.9108453 L49.486966,24.5348016 L49.5097937,24.5348016 C49.7076335,24.1771681 50.1489685,23.82038 50.7805341,23.82038 Z M81.8482351,23.82038 C82.5034738,23.82038 83.2339593,24.2464966 83.2339593,25.5400647 L83.2339593,28.1052187 L82.3504439,28.1052187 L82.3504439,25.6465938 C82.3504439,25.0530743 82.1534495,24.5500201 81.5514753,24.5500201 C81.1177496,24.5500201 80.6535869,24.9084991 80.6535869,25.5781108 L80.6535869,28.1052187 L79.7700714,28.1052187 L79.7700714,25.0911205 C79.7700714,24.6261123 79.7556984,24.2684788 79.7396345,23.9108453 L80.5081662,23.9108453 L80.554667,24.5348016 L80.5766492,24.5348016 C80.7753345,24.1771681 81.2166695,23.82038 81.8482351,23.82038 Z M46.2760426,25.996449 C45.5844486,25.996449 44.7846346,26.1249604 44.7846346,26.8715098 C44.7846346,27.3356725 45.0737852,27.541967 45.4009818,27.541967 C45.8803629,27.541967 46.2760426,27.1767242 46.2760426,26.6888884 L46.2760426,25.996449 Z M55.8114994,25.996449 C55.11906,25.996449 54.319246,26.1249604 54.319246,26.8715098 C54.319246,27.3356725 54.6083966,27.541967 54.9364387,27.541967 C55.4158198,27.541967 55.8114994,27.1767242 55.8114994,26.6888884 L55.8114994,25.996449 Z M8.31379276,24.5203441 C7.63741729,24.5203441 7.26371984,25.1891104 7.26371984,26.0193612 C7.26371984,26.8411574 7.6289626,27.472723 8.29941978,27.472723 C8.87011159,27.472723 9.24296357,26.9705143 9.24296357,26.384604 L9.24296357,25.6084631 C9.24296357,24.9227875 8.8092378,24.5203441 8.31379276,24.5203441 Z M59.9119412,24.5204287 C59.3032033,24.5204287 58.8770867,25.0978842 58.8770867,25.9966181 C58.8770867,26.8184143 59.2499387,27.40517 59.904332,27.40517 C60.3608854,27.40517 60.8174388,27.0551457 60.8174388,26.3542517 L60.8174388,25.5324555 C60.8174388,24.9761366 60.4521961,24.5204287 59.9119412,24.5204287 Z M13.2755987,24.4508465 C12.6279692,24.4508465 12.3548826,25.0908668 12.3083818,25.5778572 L14.1506595,25.5778572 C14.1582687,25.0748029 13.9528196,24.4508465 13.2755987,24.4508465 Z M64.850074,24.4508465 C64.2032899,24.4508465 63.9293579,25.0908668 63.882857,25.5778572 L65.7251347,25.5778572 C65.7335894,25.0748029 65.5281404,24.4508465 64.850074,24.4508465 Z M76.750224,24.4508465 C76.10344,24.4508465 75.8295079,25.0908668 75.7830071,25.5778572 L77.6252848,25.5778572 C77.6337395,25.0748029 77.4282904,24.4508465 76.750224,24.4508465 Z M25.093445,22.2361396 C25.4310557,22.2361396 25.6573764,22.4568071 25.6573764,22.7535668 C25.6573764,23.0359536 25.4385373,23.2633848 25.0859633,23.2633848 C24.7483526,23.2633848 24.5220319,23.0359536 24.5220319,22.7535668 C24.5220319,22.4568071 24.7577047,22.2361396 25.093445,22.2361396 Z" id="形状结合"></path>
                    </g>
                </g>
            </g>
        </g>
    </g>
</svg>